<mxfile host="Electron" modified="2023-12-08T02:44:38.973Z" agent="Mozilla/5.0 (Windows NT 10.0; Win64; x64) AppleWebKit/537.36 (KHTML, like Gecko) draw.io/22.1.2 Chrome/114.0.5735.289 Electron/25.9.4 Safari/537.36" etag="bBfDB19_0iKf_bYxccYV" version="22.1.2" type="device">
  <diagram id="C5RBs43oDa-KdzZeNtuy" name="Page-1">
    <mxGraphModel dx="1206" dy="809" grid="1" gridSize="10" guides="1" tooltips="1" connect="1" arrows="1" fold="1" page="1" pageScale="1" pageWidth="827" pageHeight="1169" math="0" shadow="0">
      <root>
        <mxCell id="WIyWlLk6GJQsqaUBKTNV-0" />
        <mxCell id="WIyWlLk6GJQsqaUBKTNV-1" parent="WIyWlLk6GJQsqaUBKTNV-0" />
        <mxCell id="Ic9Vqe6EH_I2jpwRcDCz-46" style="edgeStyle=orthogonalEdgeStyle;rounded=1;orthogonalLoop=1;jettySize=auto;html=1;exitX=0.5;exitY=0;exitDx=0;exitDy=0;entryX=0.5;entryY=0;entryDx=0;entryDy=0;strokeColor=#E07A5F;fontColor=default;fillColor=#F2CC8F;startArrow=ERmany;startFill=0;endArrow=ERone;endFill=0;labelBackgroundColor=none;" parent="WIyWlLk6GJQsqaUBKTNV-1" source="Ic9Vqe6EH_I2jpwRcDCz-0" target="Ic9Vqe6EH_I2jpwRcDCz-4" edge="1">
          <mxGeometry relative="1" as="geometry" />
        </mxCell>
        <mxCell id="Ic9Vqe6EH_I2jpwRcDCz-0" value="users" style="shape=table;startSize=30;container=1;collapsible=1;childLayout=tableLayout;fixedRows=1;rowLines=0;fontStyle=1;align=center;resizeLast=1;labelBackgroundColor=none;fillColor=#F2CC8F;strokeColor=#E07A5F;fontColor=#393C56;rounded=1;" parent="WIyWlLk6GJQsqaUBKTNV-1" vertex="1">
          <mxGeometry x="50" y="290" width="106" height="60" as="geometry" />
        </mxCell>
        <mxCell id="Ic9Vqe6EH_I2jpwRcDCz-1" value="" style="shape=tableRow;horizontal=0;startSize=0;swimlaneHead=0;swimlaneBody=0;fillColor=none;collapsible=0;dropTarget=0;points=[[0,0.5],[1,0.5]];portConstraint=eastwest;strokeColor=#E07A5F;top=0;left=0;right=0;bottom=0;labelBackgroundColor=none;fontColor=#393C56;rounded=1;" parent="Ic9Vqe6EH_I2jpwRcDCz-0" vertex="1">
          <mxGeometry y="30" width="106" height="30" as="geometry" />
        </mxCell>
        <mxCell id="Ic9Vqe6EH_I2jpwRcDCz-2" value="" style="shape=partialRectangle;overflow=hidden;connectable=0;fillColor=none;strokeColor=#E07A5F;top=0;left=0;bottom=0;right=0;labelBackgroundColor=none;fontColor=#393C56;rounded=1;" parent="Ic9Vqe6EH_I2jpwRcDCz-1" vertex="1">
          <mxGeometry width="30" height="30" as="geometry">
            <mxRectangle width="30" height="30" as="alternateBounds" />
          </mxGeometry>
        </mxCell>
        <mxCell id="Ic9Vqe6EH_I2jpwRcDCz-3" value="" style="shape=partialRectangle;overflow=hidden;connectable=0;fillColor=none;align=left;strokeColor=#E07A5F;top=0;left=0;bottom=0;right=0;spacingLeft=6;labelBackgroundColor=none;fontColor=#393C56;rounded=1;" parent="Ic9Vqe6EH_I2jpwRcDCz-1" vertex="1">
          <mxGeometry x="30" width="76" height="30" as="geometry">
            <mxRectangle width="76" height="30" as="alternateBounds" />
          </mxGeometry>
        </mxCell>
        <mxCell id="Ic9Vqe6EH_I2jpwRcDCz-4" value="shopping_carts" style="shape=table;startSize=30;container=1;collapsible=1;childLayout=tableLayout;fixedRows=1;rowLines=0;fontStyle=1;align=center;resizeLast=1;labelBackgroundColor=none;fillColor=#F2CC8F;strokeColor=#E07A5F;fontColor=#393C56;rounded=1;" parent="WIyWlLk6GJQsqaUBKTNV-1" vertex="1">
          <mxGeometry x="330" y="290" width="130" height="60" as="geometry" />
        </mxCell>
        <mxCell id="Ic9Vqe6EH_I2jpwRcDCz-5" value="" style="shape=tableRow;horizontal=0;startSize=0;swimlaneHead=0;swimlaneBody=0;fillColor=none;collapsible=0;dropTarget=0;points=[[0,0.5],[1,0.5]];portConstraint=eastwest;strokeColor=#E07A5F;top=0;left=0;right=0;bottom=0;labelBackgroundColor=none;fontColor=#393C56;rounded=1;" parent="Ic9Vqe6EH_I2jpwRcDCz-4" vertex="1">
          <mxGeometry y="30" width="130" height="30" as="geometry" />
        </mxCell>
        <mxCell id="Ic9Vqe6EH_I2jpwRcDCz-6" value="" style="shape=partialRectangle;overflow=hidden;connectable=0;fillColor=none;strokeColor=#E07A5F;top=0;left=0;bottom=0;right=0;labelBackgroundColor=none;fontColor=#393C56;rounded=1;" parent="Ic9Vqe6EH_I2jpwRcDCz-5" vertex="1">
          <mxGeometry width="30" height="30" as="geometry">
            <mxRectangle width="30" height="30" as="alternateBounds" />
          </mxGeometry>
        </mxCell>
        <mxCell id="Ic9Vqe6EH_I2jpwRcDCz-7" value="" style="shape=partialRectangle;overflow=hidden;connectable=0;fillColor=none;align=left;strokeColor=#E07A5F;top=0;left=0;bottom=0;right=0;spacingLeft=6;labelBackgroundColor=none;fontColor=#393C56;rounded=1;" parent="Ic9Vqe6EH_I2jpwRcDCz-5" vertex="1">
          <mxGeometry x="30" width="100" height="30" as="geometry">
            <mxRectangle width="100" height="30" as="alternateBounds" />
          </mxGeometry>
        </mxCell>
        <mxCell id="Ic9Vqe6EH_I2jpwRcDCz-36" style="edgeStyle=orthogonalEdgeStyle;rounded=1;orthogonalLoop=1;jettySize=auto;html=1;exitX=1;exitY=0.25;exitDx=0;exitDy=0;entryX=0;entryY=0.25;entryDx=0;entryDy=0;startArrow=ERoneToMany;startFill=0;endArrow=ERone;endFill=0;labelBackgroundColor=none;strokeColor=#E07A5F;fontColor=default;" parent="WIyWlLk6GJQsqaUBKTNV-1" source="Ic9Vqe6EH_I2jpwRcDCz-8" target="Ic9Vqe6EH_I2jpwRcDCz-16" edge="1">
          <mxGeometry relative="1" as="geometry" />
        </mxCell>
        <mxCell id="Ic9Vqe6EH_I2jpwRcDCz-8" value="books" style="shape=table;startSize=30;container=1;collapsible=1;childLayout=tableLayout;fixedRows=1;rowLines=0;fontStyle=1;align=center;resizeLast=1;labelBackgroundColor=none;fillColor=#F2CC8F;strokeColor=#E07A5F;fontColor=#393C56;rounded=1;" parent="WIyWlLk6GJQsqaUBKTNV-1" vertex="1">
          <mxGeometry x="355" y="460" width="80" height="60" as="geometry" />
        </mxCell>
        <mxCell id="Ic9Vqe6EH_I2jpwRcDCz-9" value="" style="shape=tableRow;horizontal=0;startSize=0;swimlaneHead=0;swimlaneBody=0;fillColor=none;collapsible=0;dropTarget=0;points=[[0,0.5],[1,0.5]];portConstraint=eastwest;strokeColor=#E07A5F;top=0;left=0;right=0;bottom=0;labelBackgroundColor=none;fontColor=#393C56;rounded=1;" parent="Ic9Vqe6EH_I2jpwRcDCz-8" vertex="1">
          <mxGeometry y="30" width="80" height="30" as="geometry" />
        </mxCell>
        <mxCell id="Ic9Vqe6EH_I2jpwRcDCz-10" value="" style="shape=partialRectangle;overflow=hidden;connectable=0;fillColor=none;strokeColor=#E07A5F;top=0;left=0;bottom=0;right=0;labelBackgroundColor=none;fontColor=#393C56;rounded=1;" parent="Ic9Vqe6EH_I2jpwRcDCz-9" vertex="1">
          <mxGeometry width="30" height="30" as="geometry">
            <mxRectangle width="30" height="30" as="alternateBounds" />
          </mxGeometry>
        </mxCell>
        <mxCell id="Ic9Vqe6EH_I2jpwRcDCz-11" value="" style="shape=partialRectangle;overflow=hidden;connectable=0;fillColor=none;align=left;strokeColor=#E07A5F;top=0;left=0;bottom=0;right=0;spacingLeft=6;labelBackgroundColor=none;fontColor=#393C56;rounded=1;" parent="Ic9Vqe6EH_I2jpwRcDCz-9" vertex="1">
          <mxGeometry x="30" width="50" height="30" as="geometry">
            <mxRectangle width="50" height="30" as="alternateBounds" />
          </mxGeometry>
        </mxCell>
        <mxCell id="Ic9Vqe6EH_I2jpwRcDCz-12" value="authors" style="shape=table;startSize=30;container=1;collapsible=1;childLayout=tableLayout;fixedRows=1;rowLines=0;fontStyle=1;align=center;resizeLast=1;labelBackgroundColor=none;fillColor=#F2CC8F;strokeColor=#E07A5F;fontColor=#393C56;rounded=1;" parent="WIyWlLk6GJQsqaUBKTNV-1" vertex="1">
          <mxGeometry x="520" y="525" width="80" height="60" as="geometry" />
        </mxCell>
        <mxCell id="Ic9Vqe6EH_I2jpwRcDCz-13" value="" style="shape=tableRow;horizontal=0;startSize=0;swimlaneHead=0;swimlaneBody=0;fillColor=none;collapsible=0;dropTarget=0;points=[[0,0.5],[1,0.5]];portConstraint=eastwest;strokeColor=#E07A5F;top=0;left=0;right=0;bottom=0;labelBackgroundColor=none;fontColor=#393C56;rounded=1;" parent="Ic9Vqe6EH_I2jpwRcDCz-12" vertex="1">
          <mxGeometry y="30" width="80" height="30" as="geometry" />
        </mxCell>
        <mxCell id="Ic9Vqe6EH_I2jpwRcDCz-14" value="" style="shape=partialRectangle;overflow=hidden;connectable=0;fillColor=none;strokeColor=#E07A5F;top=0;left=0;bottom=0;right=0;labelBackgroundColor=none;fontColor=#393C56;rounded=1;" parent="Ic9Vqe6EH_I2jpwRcDCz-13" vertex="1">
          <mxGeometry width="30" height="30" as="geometry">
            <mxRectangle width="30" height="30" as="alternateBounds" />
          </mxGeometry>
        </mxCell>
        <mxCell id="Ic9Vqe6EH_I2jpwRcDCz-15" value="" style="shape=partialRectangle;overflow=hidden;connectable=0;fillColor=none;align=left;strokeColor=#E07A5F;top=0;left=0;bottom=0;right=0;spacingLeft=6;labelBackgroundColor=none;fontColor=#393C56;rounded=1;" parent="Ic9Vqe6EH_I2jpwRcDCz-13" vertex="1">
          <mxGeometry x="30" width="50" height="30" as="geometry">
            <mxRectangle width="50" height="30" as="alternateBounds" />
          </mxGeometry>
        </mxCell>
        <mxCell id="Ic9Vqe6EH_I2jpwRcDCz-16" value="publishers" style="shape=table;startSize=30;container=1;collapsible=1;childLayout=tableLayout;fixedRows=1;rowLines=0;fontStyle=1;align=center;resizeLast=1;labelBackgroundColor=none;fillColor=#F2CC8F;strokeColor=#E07A5F;fontColor=#393C56;rounded=1;" parent="WIyWlLk6GJQsqaUBKTNV-1" vertex="1">
          <mxGeometry x="520" y="400" width="80" height="60" as="geometry" />
        </mxCell>
        <mxCell id="Ic9Vqe6EH_I2jpwRcDCz-17" value="" style="shape=tableRow;horizontal=0;startSize=0;swimlaneHead=0;swimlaneBody=0;fillColor=none;collapsible=0;dropTarget=0;points=[[0,0.5],[1,0.5]];portConstraint=eastwest;strokeColor=#E07A5F;top=0;left=0;right=0;bottom=0;labelBackgroundColor=none;fontColor=#393C56;rounded=1;" parent="Ic9Vqe6EH_I2jpwRcDCz-16" vertex="1">
          <mxGeometry y="30" width="80" height="30" as="geometry" />
        </mxCell>
        <mxCell id="Ic9Vqe6EH_I2jpwRcDCz-18" value="" style="shape=partialRectangle;overflow=hidden;connectable=0;fillColor=none;strokeColor=#E07A5F;top=0;left=0;bottom=0;right=0;labelBackgroundColor=none;fontColor=#393C56;rounded=1;" parent="Ic9Vqe6EH_I2jpwRcDCz-17" vertex="1">
          <mxGeometry width="30" height="30" as="geometry">
            <mxRectangle width="30" height="30" as="alternateBounds" />
          </mxGeometry>
        </mxCell>
        <mxCell id="Ic9Vqe6EH_I2jpwRcDCz-19" value="" style="shape=partialRectangle;overflow=hidden;connectable=0;fillColor=none;align=left;strokeColor=#E07A5F;top=0;left=0;bottom=0;right=0;spacingLeft=6;labelBackgroundColor=none;fontColor=#393C56;rounded=1;" parent="Ic9Vqe6EH_I2jpwRcDCz-17" vertex="1">
          <mxGeometry x="30" width="50" height="30" as="geometry">
            <mxRectangle width="50" height="30" as="alternateBounds" />
          </mxGeometry>
        </mxCell>
        <mxCell id="Ic9Vqe6EH_I2jpwRcDCz-41" style="edgeStyle=orthogonalEdgeStyle;rounded=1;orthogonalLoop=1;jettySize=auto;html=1;exitX=1;exitY=0.25;exitDx=0;exitDy=0;entryX=0;entryY=0.5;entryDx=0;entryDy=0;startArrow=ERone;startFill=0;endArrow=ERmany;endFill=0;labelBackgroundColor=none;strokeColor=#E07A5F;fontColor=default;" parent="WIyWlLk6GJQsqaUBKTNV-1" source="Ic9Vqe6EH_I2jpwRcDCz-20" target="Ic9Vqe6EH_I2jpwRcDCz-8" edge="1">
          <mxGeometry relative="1" as="geometry" />
        </mxCell>
        <mxCell id="Ic9Vqe6EH_I2jpwRcDCz-20" value="shopping_history" style="shape=table;startSize=30;container=1;collapsible=1;childLayout=tableLayout;fixedRows=1;rowLines=0;fontStyle=1;align=center;resizeLast=1;labelBackgroundColor=none;fillColor=#F2CC8F;strokeColor=#E07A5F;fontColor=#393C56;rounded=1;" parent="WIyWlLk6GJQsqaUBKTNV-1" vertex="1">
          <mxGeometry x="10" y="630" width="130" height="60" as="geometry" />
        </mxCell>
        <mxCell id="Ic9Vqe6EH_I2jpwRcDCz-21" value="" style="shape=tableRow;horizontal=0;startSize=0;swimlaneHead=0;swimlaneBody=0;fillColor=none;collapsible=0;dropTarget=0;points=[[0,0.5],[1,0.5]];portConstraint=eastwest;strokeColor=#E07A5F;top=0;left=0;right=0;bottom=0;labelBackgroundColor=none;fontColor=#393C56;rounded=1;" parent="Ic9Vqe6EH_I2jpwRcDCz-20" vertex="1">
          <mxGeometry y="30" width="130" height="30" as="geometry" />
        </mxCell>
        <mxCell id="Ic9Vqe6EH_I2jpwRcDCz-22" value="" style="shape=partialRectangle;overflow=hidden;connectable=0;fillColor=none;strokeColor=#E07A5F;top=0;left=0;bottom=0;right=0;labelBackgroundColor=none;fontColor=#393C56;rounded=1;" parent="Ic9Vqe6EH_I2jpwRcDCz-21" vertex="1">
          <mxGeometry width="30" height="30" as="geometry">
            <mxRectangle width="30" height="30" as="alternateBounds" />
          </mxGeometry>
        </mxCell>
        <mxCell id="Ic9Vqe6EH_I2jpwRcDCz-23" value="" style="shape=partialRectangle;overflow=hidden;connectable=0;fillColor=none;align=left;strokeColor=#E07A5F;top=0;left=0;bottom=0;right=0;spacingLeft=6;labelBackgroundColor=none;fontColor=#393C56;rounded=1;" parent="Ic9Vqe6EH_I2jpwRcDCz-21" vertex="1">
          <mxGeometry x="30" width="100" height="30" as="geometry">
            <mxRectangle width="100" height="30" as="alternateBounds" />
          </mxGeometry>
        </mxCell>
        <mxCell id="Ic9Vqe6EH_I2jpwRcDCz-24" value="category" style="shape=table;startSize=30;container=1;collapsible=1;childLayout=tableLayout;fixedRows=1;rowLines=0;fontStyle=1;align=center;resizeLast=1;labelBackgroundColor=none;fillColor=#F2CC8F;strokeColor=#E07A5F;fontColor=#393C56;rounded=1;" parent="WIyWlLk6GJQsqaUBKTNV-1" vertex="1">
          <mxGeometry x="390" y="620" width="80" height="60" as="geometry" />
        </mxCell>
        <mxCell id="Ic9Vqe6EH_I2jpwRcDCz-25" value="" style="shape=tableRow;horizontal=0;startSize=0;swimlaneHead=0;swimlaneBody=0;fillColor=none;collapsible=0;dropTarget=0;points=[[0,0.5],[1,0.5]];portConstraint=eastwest;strokeColor=#E07A5F;top=0;left=0;right=0;bottom=0;labelBackgroundColor=none;fontColor=#393C56;rounded=1;" parent="Ic9Vqe6EH_I2jpwRcDCz-24" vertex="1">
          <mxGeometry y="30" width="80" height="30" as="geometry" />
        </mxCell>
        <mxCell id="Ic9Vqe6EH_I2jpwRcDCz-26" value="" style="shape=partialRectangle;overflow=hidden;connectable=0;fillColor=none;strokeColor=#E07A5F;top=0;left=0;bottom=0;right=0;labelBackgroundColor=none;fontColor=#393C56;rounded=1;" parent="Ic9Vqe6EH_I2jpwRcDCz-25" vertex="1">
          <mxGeometry width="30" height="30" as="geometry">
            <mxRectangle width="30" height="30" as="alternateBounds" />
          </mxGeometry>
        </mxCell>
        <mxCell id="Ic9Vqe6EH_I2jpwRcDCz-27" value="" style="shape=partialRectangle;overflow=hidden;connectable=0;fillColor=none;align=left;strokeColor=#E07A5F;top=0;left=0;bottom=0;right=0;spacingLeft=6;labelBackgroundColor=none;fontColor=#393C56;rounded=1;" parent="Ic9Vqe6EH_I2jpwRcDCz-25" vertex="1">
          <mxGeometry x="30" width="50" height="30" as="geometry">
            <mxRectangle width="50" height="30" as="alternateBounds" />
          </mxGeometry>
        </mxCell>
        <mxCell id="Ic9Vqe6EH_I2jpwRcDCz-43" style="edgeStyle=orthogonalEdgeStyle;rounded=1;orthogonalLoop=1;jettySize=auto;html=1;exitX=1;exitY=0.25;exitDx=0;exitDy=0;entryX=0.25;entryY=0;entryDx=0;entryDy=0;startArrow=ERone;startFill=0;endArrow=ERmany;endFill=0;labelBackgroundColor=none;strokeColor=#E07A5F;fontColor=default;" parent="WIyWlLk6GJQsqaUBKTNV-1" source="Ic9Vqe6EH_I2jpwRcDCz-28" target="Ic9Vqe6EH_I2jpwRcDCz-8" edge="1">
          <mxGeometry relative="1" as="geometry" />
        </mxCell>
        <mxCell id="Ic9Vqe6EH_I2jpwRcDCz-28" value="collection" style="shape=table;startSize=30;container=1;collapsible=1;childLayout=tableLayout;fixedRows=1;rowLines=0;fontStyle=1;align=center;resizeLast=1;labelBackgroundColor=none;fillColor=#F2CC8F;strokeColor=#E07A5F;fontColor=#393C56;rounded=1;" parent="WIyWlLk6GJQsqaUBKTNV-1" vertex="1">
          <mxGeometry x="210" y="390" width="80" height="60" as="geometry" />
        </mxCell>
        <mxCell id="Ic9Vqe6EH_I2jpwRcDCz-29" value="" style="shape=tableRow;horizontal=0;startSize=0;swimlaneHead=0;swimlaneBody=0;fillColor=none;collapsible=0;dropTarget=0;points=[[0,0.5],[1,0.5]];portConstraint=eastwest;strokeColor=#E07A5F;top=0;left=0;right=0;bottom=0;labelBackgroundColor=none;fontColor=#393C56;rounded=1;" parent="Ic9Vqe6EH_I2jpwRcDCz-28" vertex="1">
          <mxGeometry y="30" width="80" height="30" as="geometry" />
        </mxCell>
        <mxCell id="Ic9Vqe6EH_I2jpwRcDCz-30" value="" style="shape=partialRectangle;overflow=hidden;connectable=0;fillColor=none;strokeColor=#E07A5F;top=0;left=0;bottom=0;right=0;labelBackgroundColor=none;fontColor=#393C56;rounded=1;" parent="Ic9Vqe6EH_I2jpwRcDCz-29" vertex="1">
          <mxGeometry width="30" height="30" as="geometry">
            <mxRectangle width="30" height="30" as="alternateBounds" />
          </mxGeometry>
        </mxCell>
        <mxCell id="Ic9Vqe6EH_I2jpwRcDCz-31" value="" style="shape=partialRectangle;overflow=hidden;connectable=0;fillColor=none;align=left;strokeColor=#E07A5F;top=0;left=0;bottom=0;right=0;spacingLeft=6;labelBackgroundColor=none;fontColor=#393C56;rounded=1;" parent="Ic9Vqe6EH_I2jpwRcDCz-29" vertex="1">
          <mxGeometry x="30" width="50" height="30" as="geometry">
            <mxRectangle width="50" height="30" as="alternateBounds" />
          </mxGeometry>
        </mxCell>
        <mxCell id="Ic9Vqe6EH_I2jpwRcDCz-39" style="edgeStyle=orthogonalEdgeStyle;rounded=1;orthogonalLoop=1;jettySize=auto;html=1;exitX=1;exitY=0.5;exitDx=0;exitDy=0;entryX=-0.012;entryY=0.133;entryDx=0;entryDy=0;entryPerimeter=0;startArrow=ERoneToMany;startFill=0;endArrow=ERone;endFill=0;labelBackgroundColor=none;strokeColor=#E07A5F;fontColor=default;" parent="WIyWlLk6GJQsqaUBKTNV-1" source="Ic9Vqe6EH_I2jpwRcDCz-9" target="Ic9Vqe6EH_I2jpwRcDCz-12" edge="1">
          <mxGeometry relative="1" as="geometry">
            <mxPoint x="510" y="510" as="targetPoint" />
          </mxGeometry>
        </mxCell>
        <mxCell id="Ic9Vqe6EH_I2jpwRcDCz-40" style="edgeStyle=orthogonalEdgeStyle;rounded=1;orthogonalLoop=1;jettySize=auto;html=1;exitX=0;exitY=0.5;exitDx=0;exitDy=0;entryX=0.5;entryY=0;entryDx=0;entryDy=0;startArrow=ERoneToMany;startFill=0;endArrow=ERone;endFill=0;labelBackgroundColor=none;strokeColor=#E07A5F;fontColor=default;" parent="WIyWlLk6GJQsqaUBKTNV-1" source="Ic9Vqe6EH_I2jpwRcDCz-9" target="Ic9Vqe6EH_I2jpwRcDCz-24" edge="1">
          <mxGeometry relative="1" as="geometry" />
        </mxCell>
        <mxCell id="Ic9Vqe6EH_I2jpwRcDCz-42" style="edgeStyle=orthogonalEdgeStyle;rounded=1;orthogonalLoop=1;jettySize=auto;html=1;exitX=0;exitY=0.5;exitDx=0;exitDy=0;entryX=0.5;entryY=0;entryDx=0;entryDy=0;endArrow=ERone;endFill=0;startArrow=ERmany;startFill=0;labelBackgroundColor=none;strokeColor=#E07A5F;fontColor=default;" parent="WIyWlLk6GJQsqaUBKTNV-1" source="Ic9Vqe6EH_I2jpwRcDCz-1" target="Ic9Vqe6EH_I2jpwRcDCz-20" edge="1">
          <mxGeometry relative="1" as="geometry" />
        </mxCell>
        <mxCell id="Ic9Vqe6EH_I2jpwRcDCz-44" style="edgeStyle=orthogonalEdgeStyle;rounded=1;orthogonalLoop=1;jettySize=auto;html=1;exitX=1;exitY=0.5;exitDx=0;exitDy=0;entryX=0.5;entryY=0;entryDx=0;entryDy=0;strokeColor=#E07A5F;fontColor=default;fillColor=#F2CC8F;endArrow=ERmany;endFill=0;startArrow=ERone;startFill=0;labelBackgroundColor=none;" parent="WIyWlLk6GJQsqaUBKTNV-1" source="Ic9Vqe6EH_I2jpwRcDCz-5" target="Ic9Vqe6EH_I2jpwRcDCz-8" edge="1">
          <mxGeometry relative="1" as="geometry" />
        </mxCell>
        <mxCell id="Ic9Vqe6EH_I2jpwRcDCz-45" style="edgeStyle=orthogonalEdgeStyle;rounded=1;orthogonalLoop=1;jettySize=auto;html=1;exitX=1;exitY=0.5;exitDx=0;exitDy=0;strokeColor=#E07A5F;fontColor=default;fillColor=#F2CC8F;startArrow=ERmany;startFill=0;endArrow=ERone;endFill=0;labelBackgroundColor=none;" parent="WIyWlLk6GJQsqaUBKTNV-1" source="Ic9Vqe6EH_I2jpwRcDCz-1" target="Ic9Vqe6EH_I2jpwRcDCz-28" edge="1">
          <mxGeometry relative="1" as="geometry" />
        </mxCell>
        <mxCell id="JP8yN2XiJCM7ezEeXTDO-6" style="edgeStyle=orthogonalEdgeStyle;rounded=1;orthogonalLoop=1;jettySize=auto;html=1;exitX=1;exitY=0.25;exitDx=0;exitDy=0;entryX=0;entryY=0.25;entryDx=0;entryDy=0;strokeColor=#E07A5F;fontColor=#393C56;fillColor=#F2CC8F;startArrow=ERzeroToOne;startFill=0;endArrow=ERone;endFill=0;" parent="WIyWlLk6GJQsqaUBKTNV-1" source="JP8yN2XiJCM7ezEeXTDO-0" target="Ic9Vqe6EH_I2jpwRcDCz-8" edge="1">
          <mxGeometry relative="1" as="geometry" />
        </mxCell>
        <mxCell id="JP8yN2XiJCM7ezEeXTDO-0" value="upload" style="shape=table;startSize=30;container=1;collapsible=1;childLayout=tableLayout;fixedRows=1;rowLines=0;fontStyle=1;align=center;resizeLast=1;rounded=1;labelBackgroundColor=none;fillColor=#F2CC8F;strokeColor=#E07A5F;fontColor=#393C56;" parent="WIyWlLk6GJQsqaUBKTNV-1" vertex="1">
          <mxGeometry x="100" y="450" width="90" height="60" as="geometry" />
        </mxCell>
        <mxCell id="JP8yN2XiJCM7ezEeXTDO-1" value="" style="shape=tableRow;horizontal=0;startSize=0;swimlaneHead=0;swimlaneBody=0;fillColor=none;collapsible=0;dropTarget=0;points=[[0,0.5],[1,0.5]];portConstraint=eastwest;strokeColor=#E07A5F;top=0;left=0;right=0;bottom=0;rounded=1;labelBackgroundColor=none;fontColor=#393C56;" parent="JP8yN2XiJCM7ezEeXTDO-0" vertex="1">
          <mxGeometry y="30" width="90" height="30" as="geometry" />
        </mxCell>
        <mxCell id="JP8yN2XiJCM7ezEeXTDO-2" value="" style="shape=partialRectangle;overflow=hidden;connectable=0;fillColor=none;strokeColor=#E07A5F;top=0;left=0;bottom=0;right=0;rounded=1;labelBackgroundColor=none;fontColor=#393C56;" parent="JP8yN2XiJCM7ezEeXTDO-1" vertex="1">
          <mxGeometry width="30" height="30" as="geometry">
            <mxRectangle width="30" height="30" as="alternateBounds" />
          </mxGeometry>
        </mxCell>
        <mxCell id="JP8yN2XiJCM7ezEeXTDO-3" value="" style="shape=partialRectangle;overflow=hidden;connectable=0;fillColor=none;align=left;strokeColor=#E07A5F;top=0;left=0;bottom=0;right=0;spacingLeft=6;rounded=1;labelBackgroundColor=none;fontColor=#393C56;" parent="JP8yN2XiJCM7ezEeXTDO-1" vertex="1">
          <mxGeometry x="30" width="60" height="30" as="geometry">
            <mxRectangle width="60" height="30" as="alternateBounds" />
          </mxGeometry>
        </mxCell>
        <mxCell id="JP8yN2XiJCM7ezEeXTDO-4" style="edgeStyle=orthogonalEdgeStyle;rounded=1;orthogonalLoop=1;jettySize=auto;html=1;exitX=0.25;exitY=0;exitDx=0;exitDy=0;entryX=0.522;entryY=1;entryDx=0;entryDy=0;entryPerimeter=0;strokeColor=#E07A5F;fontColor=#393C56;fillColor=#F2CC8F;startArrow=ERzeroToMany;startFill=0;endArrow=ERone;endFill=0;" parent="WIyWlLk6GJQsqaUBKTNV-1" source="JP8yN2XiJCM7ezEeXTDO-0" target="Ic9Vqe6EH_I2jpwRcDCz-1" edge="1">
          <mxGeometry relative="1" as="geometry" />
        </mxCell>
      </root>
    </mxGraphModel>
  </diagram>
</mxfile>
